HIERARCHY
ROOT Pelvis
{
	OFFSET 0.000000 0.000000 0.000000
	CHANNELS 6 Xposition Yposition Zposition Xrotation Yrotation Zrotation
	JOINT LeftUpLeg_virtual
	{
		OFFSET 0.000000 0.000000 0.000000
		CHANNELS 3 Xrotation Yrotation Zrotation
		JOINT LeftUpLeg
		{
			OFFSET 8.479700 -4.795502 -0.379100
			CHANNELS 3 Xrotation Yrotation Zrotation
			JOINT LeftLeg
			{
				OFFSET 0.024144 -32.555107 0.112900
				CHANNELS 3 Xrotation Yrotation Zrotation
				JOINT LeftFoot
				{
					OFFSET -0.024144 -32.638630 -3.012600
					CHANNELS 3 Xrotation Yrotation Zrotation
					JOINT LeftToeBase
					{
						OFFSET 0.970200 -13.225400 11.864200
						CHANNELS 3 Xrotation Yrotation Zrotation
						End Site
						{
							OFFSET 0 0 0
						}
					}
				}
			}
		}
	}
	JOINT RightUpLeg_virtual
	{
		OFFSET 0.000000 0.000000 0.000000
		CHANNELS 3 Xrotation Yrotation Zrotation
		JOINT RightUpLeg
		{
			OFFSET -8.479700 -4.795502 -0.379100
			CHANNELS 3 Xrotation Yrotation Zrotation
			JOINT RightLeg
			{
				OFFSET -0.023144 -32.555092 0.112900
				CHANNELS 3 Xrotation Yrotation Zrotation
				JOINT RightFoot
				{
					OFFSET 0.023144 -32.638641 -3.012700
					CHANNELS 3 Xrotation Yrotation Zrotation
					JOINT RightToeBase
					{
						OFFSET -0.970200 -13.225400 11.864200
						CHANNELS 3 Xrotation Yrotation Zrotation
						End Site
						{
							OFFSET 0 0 0
						}
					}
				}
			}
		}
	}
	JOINT Hips_virtual
	{
		OFFSET 0.000000 0.000000 0.000000
		CHANNELS 3 Xrotation Yrotation Zrotation
		JOINT Hips
		{
			OFFSET -0.000000 -0.000000 -0.000000
			CHANNELS 3 Xrotation Yrotation Zrotation
			JOINT Spine
			{
				OFFSET 0.000000 7.722000 1.166200
				CHANNELS 3 Xrotation Yrotation Zrotation
				JOINT Spine1
				{
					OFFSET 0.000000 12.024101 0.248800
					CHANNELS 3 Xrotation Yrotation Zrotation
					JOINT Spine2
					{
						OFFSET 0.000000 11.502998 -0.491200
						CHANNELS 3 Xrotation Yrotation Zrotation
						JOINT Neck_virtual
						{
							OFFSET 0.000000 0.000000 0.000000
							CHANNELS 3 Xrotation Yrotation Zrotation
							JOINT Neck
							{
								OFFSET 0.000000 18.430702 -3.123100
								CHANNELS 3 Xrotation Yrotation Zrotation
								JOINT Head
								{
									OFFSET 0.000000 9.051102 1.034000
									CHANNELS 3 Xrotation Yrotation Zrotation
									End Site
									{
										OFFSET 0 0 0
									}
								}
							}
						}
						JOINT LeftShoulder_virtual
						{
							OFFSET 0.000000 0.000000 0.000000
							CHANNELS 3 Xrotation Yrotation Zrotation
							JOINT LeftShoulder
							{
								OFFSET 6.197800 13.665199 -4.064700
								CHANNELS 3 Xrotation Yrotation Zrotation
								JOINT LeftArm
								{
									OFFSET 7.778100 -0.187103 -1.709300
									CHANNELS 3 Xrotation Yrotation Zrotation
									JOINT LeftForeArm
									{
										OFFSET 22.049376 0.000000 0.000000
										CHANNELS 3 Xrotation Yrotation Zrotation
										JOINT LeftHand
										{
											OFFSET 23.009392 0.000000 0.000000
											CHANNELS 3 Xrotation Yrotation Zrotation
											End Site
											{
												OFFSET 0 0 0
											}
										}
									}
								}
							}
						}
						JOINT RightShoulder_virtual
						{
							OFFSET 0.000000 0.000000 0.000000
							CHANNELS 3 Xrotation Yrotation Zrotation
							JOINT RightShoulder
							{
								OFFSET -6.197800 13.665199 -4.064700
								CHANNELS 3 Xrotation Yrotation Zrotation
								JOINT RightArm
								{
									OFFSET -7.778100 -0.187103 -1.709300
									CHANNELS 3 Xrotation Yrotation Zrotation
									JOINT RightForeArm
									{
										OFFSET -22.049376 0.000000 0.000000
										CHANNELS 3 Xrotation Yrotation Zrotation
										JOINT RightHand
										{
											OFFSET -23.009392 0.000000 0.000000
											CHANNELS 3 Xrotation Yrotation Zrotation
											End Site
											{
												OFFSET 0 0 0
											}
										}
									}
								}
							}
						}
					}
				}
			}
		}
	}
}
MOTION
Frames: 11
Frame Time: 0.03333333
-0.111289 82.529129 0.476786 0.000000 0.000000 0.000000 -4.056192 6.163073 -1.770214 -2.723327 10.918812 10.710329 9.778207 -6.614958 0.228496 -4.247485 0.656825 -6.983622 0.000000 0.000000 0.000000 -4.056192 6.163073 -1.770214 -0.917441 -5.950620 1.782921 8.508447 3.375320 -0.628120 -3.345367 0.080652 0.308209 0.000000 0.000000 0.000000 -4.056192 6.163073 -1.770214 0.000000 0.000000 0.000000 4.903450 -0.349196 1.226947 5.814410 -0.121265 1.891506 0.000000 0.000000 0.000000 -4.300225 -0.608023 -1.115061 1.349176 -1.122403 0.966674 0.000000 0.000000 0.000000 -4.300225 -0.608023 -1.115061 1.687483 -7.781251 -3.494998 -0.672287 -2.004150 -76.954164 6.346021 -10.905148 1.751695 0.000000 0.000000 0.000000 -4.300225 -0.608023 -1.115061 2.069732 10.207990 4.096300 1.439769 3.704606 75.273903 15.720235 15.338359 -4.555469 0.000000 0.000000 0.000000 
0.008693 82.528610 0.526764 0.000000 0.000000 0.000000 -4.000552 6.043718 -1.782235 -2.739118 10.882018 10.605630 9.921224 -6.496068 0.243147 -4.396612 0.707848 -6.897472 0.000000 0.000000 0.000000 -4.000552 6.043718 -1.782235 -0.933547 -5.961490 1.681660 8.490967 3.403126 -0.628039 -3.392444 0.128659 0.428839 0.000000 0.000000 0.000000 -4.000552 6.043718 -1.782235 0.000000 0.000000 0.000000 4.886024 -0.327671 1.185050 5.821196 -0.106784 1.917306 0.000000 0.000000 0.000000 -4.288222 -0.596360 -1.086638 1.375391 -1.125630 0.914276 0.000000 0.000000 0.000000 -4.288222 -0.596360 -1.086638 1.710091 -7.716842 -3.464170 -0.640205 -1.994684 -77.013156 6.401013 -10.925489 1.756949 0.000000 0.000000 0.000000 -4.288222 -0.596360 -1.086638 2.108044 10.186227 3.925886 1.704444 4.137059 75.329405 15.726307 16.016514 -5.167379 0.000000 0.000000 0.000000 
0.140595 82.526855 0.598562 0.000000 0.000000 0.000000 -3.998211 5.938329 -1.765045 -2.671274 10.904143 10.475175 10.035406 -6.424039 0.250847 -4.554349 0.740656 -6.797739 0.000000 0.000000 0.000000 -3.998211 5.938329 -1.765045 -0.911323 -6.006391 1.560240 8.543466 3.533843 -0.645283 -3.480850 0.131270 0.531195 0.000000 0.000000 0.000000 -3.998211 5.938329 -1.765045 0.000000 0.000000 0.000000 4.953213 -0.314734 1.114903 5.780767 -0.096299 1.938783 0.000000 0.000000 0.000000 -4.313797 -0.587795 -1.059324 1.415384 -1.142936 0.891898 0.000000 0.000000 0.000000 -4.313797 -0.587795 -1.059324 1.725176 -7.668271 -3.419643 -0.663470 -1.882999 -77.088971 6.401421 -10.863922 1.697796 0.000000 0.000000 0.000000 -4.313797 -0.587795 -1.059324 2.143771 10.163302 3.767666 1.868302 4.550496 75.382025 15.821525 16.571757 -5.763637 0.000000 0.000000 0.000000 
0.287149 82.523956 0.661705 0.000000 0.000000 0.000000 -3.911321 5.839942 -1.775133 -2.722305 10.820902 10.335818 10.224761 -6.271292 0.279786 -4.738016 0.785092 -6.698399 0.000000 0.000000 0.000000 -3.911321 5.839942 -1.775133 -0.969667 -6.036318 1.437049 8.568388 3.587734 -0.647490 -3.552367 0.145318 0.641158 0.000000 0.000000 0.000000 -3.911321 5.839942 -1.775133 0.000000 0.000000 0.000000 4.912521 -0.305340 1.111382 5.773951 -0.091454 1.936356 0.000000 0.000000 0.000000 -4.297131 -0.582285 -1.054468 1.394790 -1.143805 0.871364 0.000000 0.000000 0.000000 -4.297131 -0.582285 -1.054468 1.736350 -7.615506 -3.398643 -0.683189 -1.787389 -77.118532 6.429663 -10.835445 1.658477 0.000000 0.000000 0.000000 -4.297131 -0.582285 -1.054468 2.177287 10.135592 3.620688 1.959051 4.933518 75.428941 15.740921 17.064225 -6.286248 0.000000 0.000000 0.000000 
0.443251 82.520409 0.736498 0.000000 0.000000 0.000000 -3.830218 5.751140 -1.800232 -2.786908 10.783981 10.218718 10.447045 -6.159265 0.305413 -4.948724 0.811233 -6.588208 0.000000 0.000000 0.000000 -3.830218 5.751140 -1.800232 -0.991799 -6.087466 1.321198 8.559538 3.686508 -0.644575 -3.619016 0.135905 0.756866 0.000000 0.000000 0.000000 -3.830218 5.751140 -1.800232 0.000000 0.000001 0.000000 4.884152 -0.292185 1.101244 5.773497 -0.086205 1.957465 0.000000 0.000000 0.000000 -4.264755 -0.578404 -1.023406 1.240539 -1.139638 0.779122 0.000000 0.000000 0.000000 -4.264755 -0.578404 -1.023406 1.728873 -7.543039 -3.464690 -0.761510 -1.733393 -77.093131 6.407570 -10.788643 1.590165 0.000000 0.000000 0.000000 -4.264755 -0.578404 -1.023406 2.218204 10.107011 3.436443 1.946279 5.291986 75.488876 15.732369 17.509204 -6.845771 0.000000 0.000000 0.000000 
0.615480 82.516754 0.831005 0.000000 0.000000 0.000000 -3.806039 5.617390 -1.804885 -2.739425 10.775369 10.073516 10.630706 -6.054216 0.316056 -5.170875 0.871727 -6.459464 0.000000 0.000000 0.000000 -3.806039 5.617390 -1.804885 -0.959804 -6.163817 1.173532 8.585944 3.785681 -0.639919 -3.728450 0.153053 0.880226 0.000000 0.000000 0.000000 -3.806039 5.617390 -1.804885 0.000000 0.000000 0.000000 4.953166 -0.264719 1.105377 5.718728 -0.064779 1.934557 0.000000 0.000000 0.000000 -4.278896 -0.552733 -1.031066 1.201341 -1.152123 0.779611 0.000000 0.000000 0.000000 -4.278896 -0.552733 -1.031066 1.746325 -7.507058 -3.396548 -0.792435 -1.661103 -77.164130 6.396788 -10.768341 1.535216 0.000000 0.000000 0.000000 -4.278896 -0.552733 -1.031066 2.243944 10.085129 3.326712 1.936970 5.597693 75.529352 15.555310 17.920634 -7.363478 0.000000 0.000000 0.000000 
0.800637 82.512405 0.933548 0.000000 0.000000 0.000000 -3.783062 5.512523 -1.806183 -2.693323 10.773192 9.914803 10.822887 -5.948402 0.335126 -5.402741 0.897778 -6.325929 0.000000 0.000000 0.000000 -3.783062 5.512523 -1.806183 -0.906240 -6.264914 1.004770 8.584330 4.013721 -0.635889 -3.816516 0.126934 1.015982 0.000000 0.000000 0.000000 -3.783062 5.512523 -1.806183 0.000000 0.000000 0.000000 4.986414 -0.237375 1.071893 5.711834 -0.047054 1.952791 0.000000 0.000000 0.000000 -4.235805 -0.535214 -0.996138 1.021569 -1.171058 0.727611 0.000000 0.000000 0.000000 -4.235805 -0.535214 -0.996138 1.742162 -7.460044 -3.430646 -0.839383 -1.700788 -77.166016 6.401235 -10.777367 1.487747 0.000000 0.000000 0.000000 -4.235805 -0.535214 -0.996138 2.290861 10.072031 3.144958 1.878469 5.832937 75.612298 15.375201 18.311846 -7.894920 0.000000 0.000000 0.000000 
0.998578 82.506668 1.030397 0.000000 0.000000 0.000000 -3.713764 5.373342 -1.822029 -2.699476 10.701933 9.736746 11.054616 -5.744446 0.374268 -5.653453 0.930000 -6.198534 0.000000 0.000000 0.000000 -3.713764 5.373342 -1.822029 -0.917167 -6.340427 0.846172 8.598129 4.158549 -0.644245 -3.913660 0.126733 1.167650 0.000000 0.000000 0.000000 -3.713764 5.373342 -1.822029 0.000000 0.000000 0.000000 5.021509 -0.197509 1.047170 5.660715 -0.020906 1.967138 0.000000 0.000000 0.000000 -4.228977 -0.508601 -0.961562 0.956012 -1.190375 0.691681 0.000000 0.000000 0.000000 -4.228977 -0.508601 -0.961562 1.740472 -7.413848 -3.437494 -0.850495 -1.754306 -77.195727 6.544701 -10.823639 1.474502 0.000000 0.000000 0.000000 -4.228977 -0.508601 -0.961562 2.302402 10.100106 2.979513 1.784276 6.001216 75.626566 15.264617 18.612066 -8.306658 0.000000 0.000000 0.000000 
1.212518 82.498962 1.145628 0.000000 0.000000 0.000000 -3.652154 5.253174 -1.835780 -2.705303 10.709360 9.570458 11.300814 -5.657736 0.386246 -5.927863 0.978082 -6.034528 0.000000 0.000000 0.000000 -3.652154 5.253174 -1.835780 -0.897703 -6.399301 0.675829 8.597373 4.312924 -0.665225 -4.011738 0.136427 1.346069 0.000000 0.000000 0.000000 -3.652154 5.253174 -1.835780 0.000000 0.000000 0.000000 5.052377 -0.161491 1.081194 5.633237 0.009387 1.926302 0.000000 0.000000 0.000000 -4.191524 -0.472123 -0.979343 0.771107 -1.238011 0.763491 0.000000 0.000000 0.000000 -4.191524 -0.472123 -0.979343 1.752073 -7.376013 -3.322552 -0.864219 -1.910943 -77.278850 6.562482 -10.838909 1.399545 0.000000 0.000000 0.000000 -4.191524 -0.472123 -0.979343 2.305063 10.038482 2.891109 1.582879 6.226914 75.707593 15.268307 18.776127 -8.923787 0.000000 0.000000 0.000000 
1.439408 82.490051 1.257418 0.000000 0.000000 0.000000 -3.574893 5.128083 -1.851048 -2.723141 10.646981 9.373297 11.564336 -5.485384 0.419854 -6.210431 1.019566 -5.877576 0.000000 0.000000 0.000000 -3.574893 5.128083 -1.851048 -0.906576 -6.449657 0.505856 8.615800 4.426983 -0.699572 -4.125886 0.130833 1.538823 0.000000 0.000000 0.000000 -3.574893 5.128083 -1.851048 0.000000 0.000000 0.000000 5.090488 -0.121606 1.043834 5.593114 0.029455 1.974533 0.000000 0.000000 0.000000 -4.157344 -0.454143 -0.907111 0.612467 -1.224001 0.670399 0.000000 0.000000 0.000000 -4.157344 -0.454143 -0.907111 1.743675 -7.289980 -3.388193 -0.919328 -2.052271 -77.296363 6.616262 -10.857673 1.330680 0.000000 0.000000 0.000000 -4.157344 -0.454143 -0.907111 2.360440 10.091026 2.643786 1.458649 6.284475 75.752399 15.270380 19.157455 -9.355904 0.000000 0.000000 0.000000 
1.678065 82.477646 1.386385 0.000000 0.000000 0.000000 -3.558348 5.029242 -1.859226 -2.677975 10.590837 9.171172 11.850964 -5.329396 0.452072 -6.522943 1.047716 -5.711415 0.000000 0.000000 0.000000 -3.558348 5.029242 -1.859226 -0.828549 -6.504646 0.324111 8.614545 4.639461 -0.755410 -4.227634 0.125051 1.759470 0.000000 0.000000 0.000000 -3.558348 5.029242 -1.859226 0.000000 0.000000 0.000000 5.206272 -0.090585 1.011833 5.535952 0.046860 1.999414 0.000000 0.000000 0.000000 -4.132951 -0.436018 -0.855768 0.482394 -1.233084 0.653704 0.000000 0.000000 0.000000 -4.132951 -0.436018 -0.855768 1.738645 -7.243278 -3.378914 -0.855129 -2.297727 -77.312605 6.397107 -10.898882 1.211024 0.000000 0.000000 0.000000 -4.132951 -0.436018 -0.855768 2.383214 10.062535 2.494449 1.414108 6.378813 75.858512 15.152998 19.575370 -9.979655 0.000000 0.000000 0.000000 
